<svg xmlns="http://www.w3.org/2000/svg" width="1463" height="307" viewBox="0 0 1463 307" fill="none">
    <g clip-path="url(#clip0_8_2006)">
        <rect width="1462" height="307" transform="translate(0.266113)" fill="#EFF4F8"/>
        <ellipse cx="-28.2276" cy="307.93" rx="98.9217" ry="94.8564" transform="rotate(9.97348 -28.2276 307.93)" fill="#D1EBFF" fill-opacity="0.49"/>
        <ellipse cx="1182.02" cy="195.276" rx="320.984" ry="300.231" transform="rotate(16.7178 1182.02 195.276)" fill="#FCFCFC" fill-opacity="0.5"/>
        <ellipse cx="1129.29" cy="-92.8239" rx="327.803" ry="283.696" transform="rotate(9.97348 1129.29 -92.8239)" fill="#D1EBFF" fill-opacity="0.4"/>
        <circle cx="864.543" cy="208.504" r="22.0157" fill="#D1F0E6"/>
        <circle cx="103.188" cy="61.2972" r="7.99274" fill="#D1F0E6"/>
        <circle cx="1399.69" cy="108.4" r="5.95898" fill="#EDB572"/>
        <circle cx="67.9378" cy="247.398" r="3.23421" fill="#EDB572"/>
        <circle cx="987.128" cy="83.8187" r="3.23421" fill="#51B4F2" fill-opacity="0.66"/>
        <path d="M1248.52 95.2605H1137.8C1133.48 95.2605 1129.98 98.7629 1129.98 103.083V103.085C1129.98 107.406 1133.48 110.908 1137.8 110.908H1248.52C1252.84 110.908 1256.34 107.406 1256.34 103.085V103.083C1256.34 98.7629 1252.84 95.2605 1248.52 95.2605Z" fill="white"/>
        <path d="M1101.9 95.2605H1081.79C1077.47 95.2605 1073.97 98.7629 1073.97 103.083V103.085C1073.97 107.406 1077.47 110.908 1081.79 110.908H1101.9C1106.22 110.908 1109.72 107.406 1109.72 103.085V103.083C1109.72 98.7629 1106.22 95.2605 1101.9 95.2605Z" fill="white"/>
        <path d="M1276.8 63.9651H1256.68C1252.36 63.9651 1248.86 67.4675 1248.86 71.7879V71.79C1248.86 76.1104 1252.36 79.6128 1256.68 79.6128H1276.8C1281.12 79.6128 1284.62 76.1104 1284.62 71.79V71.7879C1284.62 67.4675 1281.12 63.9651 1276.8 63.9651Z" fill="white"/>
        <path d="M1024.08 253.805H1003.97C999.65 253.805 996.148 257.307 996.148 261.628V261.63C996.148 265.95 999.65 269.453 1003.97 269.453H1024.08C1028.4 269.453 1031.9 265.95 1031.9 261.63V261.628C1031.9 257.307 1028.4 253.805 1024.08 253.805Z" fill="white"/>
        <path d="M1358.96 253.805H1338.85C1334.53 253.805 1331.03 257.307 1331.03 261.628V261.63C1331.03 265.95 1334.53 269.453 1338.85 269.453H1358.96C1363.28 269.453 1366.78 265.95 1366.78 261.63V261.628C1366.78 257.307 1363.28 253.805 1358.96 253.805Z" fill="white"/>
        <path d="M1228.14 63.9651H1149.79C1145.47 63.9651 1141.97 67.4675 1141.97 71.7879V71.79C1141.97 76.1104 1145.47 79.6128 1149.79 79.6128H1228.14C1232.46 79.6128 1235.97 76.1104 1235.97 71.79V71.7879C1235.97 67.4675 1232.46 63.9651 1228.14 63.9651Z" fill="white"/>
        <path d="M1212.26 87.4375C1212.26 83.1339 1215.78 79.6147 1220.09 79.6147H1165.54C1169.84 79.6147 1173.36 83.1361 1173.36 87.4375C1173.36 91.7411 1169.84 95.2603 1165.54 95.2603H1220.09C1215.78 95.2603 1212.26 91.739 1212.26 87.4375Z" fill="white"/>
        <path d="M1304.75 142.653H1028.89C1024.59 142.653 1021.07 139.132 1021.07 134.83C1021.07 130.527 1024.59 127.008 1028.89 127.008H1304.75C1309.05 127.008 1312.57 130.529 1312.57 134.83C1312.57 139.134 1309.05 142.653 1304.75 142.653Z" fill="white"/>
        <path d="M1286.57 173.947H1056.55C1052.24 173.947 1048.73 170.425 1048.73 166.124C1048.73 161.82 1052.25 158.301 1056.55 158.301H1286.57C1290.88 158.301 1294.39 161.822 1294.39 166.124C1294.39 170.427 1290.87 173.947 1286.57 173.947Z" fill="white"/>
        <path d="M1249.58 158.301C1245.27 158.301 1241.75 154.78 1241.75 150.478C1241.75 146.174 1245.28 142.655 1249.58 142.655H1080.34C1084.64 142.655 1088.16 146.177 1088.16 150.478C1088.16 154.78 1084.64 158.301 1080.34 158.301H1249.58Z" fill="white"/>
        <path d="M1030.23 236.536L1308.66 236.536C1312.98 236.536 1316.48 233.033 1316.48 228.713V228.711C1316.48 224.39 1312.98 220.888 1308.66 220.888L1030.23 220.888C1025.91 220.888 1022.41 224.39 1022.41 228.711V228.713C1022.41 233.033 1025.91 236.536 1030.23 236.536Z" fill="white"/>
        <path d="M1045.73 205.242L1329.13 205.242C1333.45 205.242 1336.95 201.74 1336.95 197.419V197.417C1336.95 193.097 1333.45 189.594 1329.13 189.594L1045.73 189.594C1041.41 189.594 1037.9 193.097 1037.9 197.417V197.419C1037.9 201.74 1041.41 205.242 1045.73 205.242Z" fill="white"/>
        <path d="M1061.87 205.242C1066.17 205.242 1069.69 208.764 1069.69 213.065C1069.69 217.369 1066.17 220.888 1061.87 220.888H1235.12C1230.82 220.888 1227.3 217.366 1227.3 213.065C1227.3 208.764 1230.82 205.242 1235.12 205.242H1061.87Z" fill="white"/>
        <path d="M1189.27 181.772C1189.27 177.468 1192.79 173.949 1197.09 173.949H1121.09C1125.4 173.949 1128.92 177.47 1128.92 181.772C1128.92 186.075 1125.4 189.594 1121.09 189.594H1197.09C1192.79 189.594 1189.27 186.073 1189.27 181.772Z" fill="white"/>
        <path d="M1419.99 292.162H915.526V293.646H1419.99V292.162Z" fill="#A2A2A2"/>
        <path d="M986.599 292.904H968.365L965.343 276.203H989.622L986.599 292.904Z" fill="white"/>
        <path d="M974.486 269.408C974.486 269.408 964.36 273.228 964.409 266.529C964.46 259.83 967.582 258.166 963.048 255.647C958.514 253.128 955.695 252.221 956.5 247.334C957.306 242.448 946.728 238.318 947.786 232.876C948.844 227.436 957.053 228.494 960.328 232.17C963.603 235.848 971.459 232.976 972.921 241.339C974.382 249.702 974.836 248.594 980.073 252.675C985.311 256.756 983.452 267.097 974.484 269.408H974.486Z" fill="white"/>
        <path d="M986.6 293.646H968.366C968.008 293.646 967.7 293.389 967.637 293.035L964.614 276.332C964.574 276.115 964.633 275.893 964.775 275.723C964.915 275.554 965.125 275.456 965.345 275.456H989.622C989.843 275.456 990.051 275.554 990.193 275.723C990.335 275.893 990.392 276.115 990.354 276.332L987.331 293.035C987.267 293.389 986.96 293.646 986.602 293.646H986.6ZM968.985 292.162H985.979L988.732 276.942H966.231L968.985 292.162Z" fill="#7A2D18"/>
        <path d="M975.84 276.944C975.829 276.944 975.818 276.944 975.808 276.944C975.399 276.927 975.081 276.58 975.1 276.171C975.102 276.115 975.312 270.578 973.167 263.114C971.191 256.243 966.759 246.276 956.849 237.826C956.537 237.561 956.499 237.093 956.766 236.781C957.031 236.469 957.5 236.431 957.811 236.698C968.022 245.405 972.582 255.679 974.608 262.764C976.806 270.449 976.592 276.003 976.582 276.236C976.565 276.635 976.236 276.944 975.842 276.944H975.84Z" fill="#7A2D18"/>
        <path d="M968.944 271.229C967.643 271.229 966.363 270.996 965.385 270.315C964.232 269.512 963.654 268.235 963.666 266.525C963.685 264.101 964.084 262.346 964.406 260.934C964.978 258.424 965.15 257.665 962.689 256.298C962.221 256.037 961.771 255.795 961.343 255.564C957.638 253.563 954.961 252.119 955.77 247.218C956.097 245.24 953.996 243.219 951.775 241.08C949.151 238.555 946.437 235.944 947.061 232.738C947.463 230.669 948.841 229.213 950.942 228.636C954.147 227.756 958.609 229.121 960.885 231.68C961.958 232.887 963.698 233.313 965.542 233.764C968.879 234.583 972.658 235.509 973.654 241.214C974.822 247.905 975.219 248.191 978.29 250.419C978.933 250.885 979.662 251.413 980.533 252.092C983.111 254.099 984.242 257.595 983.492 261.216C982.583 265.596 979.301 268.922 974.712 270.118C974.322 270.262 971.596 271.231 968.949 271.231L968.944 271.229ZM953.057 229.849C952.451 229.849 951.868 229.919 951.332 230.065C949.759 230.495 948.811 231.49 948.515 233.018C948.046 235.431 950.463 237.758 952.801 240.008C955.202 242.318 957.685 244.708 957.231 247.455C956.595 251.312 958.303 252.234 962.045 254.256C962.479 254.489 962.933 254.735 963.406 254.998C966.842 256.906 966.424 258.734 965.85 261.261C965.544 262.603 965.165 264.271 965.148 266.533C965.14 267.742 965.494 268.581 966.231 269.094C968.234 270.491 972.677 269.291 974.22 268.71C974.246 268.702 974.271 268.693 974.297 268.687C978.345 267.644 981.237 264.737 982.032 260.911C982.668 257.847 981.741 254.916 979.615 253.258C978.765 252.594 978.047 252.075 977.415 251.617C974.023 249.158 973.426 248.549 972.188 241.466C971.359 236.715 968.359 235.98 965.184 235.202C963.202 234.716 961.152 234.214 959.772 232.664C958.248 230.951 955.472 229.849 953.055 229.849H953.057Z" fill="#7A2D18"/>
        <path d="M979.212 270.258C979.212 270.258 988.073 273.601 988.028 267.739C987.984 261.878 985.251 260.423 989.217 258.219C993.183 256.014 995.653 255.221 994.947 250.945C994.241 246.669 1003.5 243.054 1002.57 238.295C1001.65 233.535 994.461 234.46 991.598 237.678C988.734 240.896 981.858 238.384 980.579 245.7C979.301 253.016 978.905 252.047 974.322 255.617C969.739 259.187 971.365 268.236 979.212 270.258Z" fill="#B0DFB3"/>
        <path d="M978.027 276.944C977.633 276.944 977.304 276.633 977.288 276.234C977.279 276.031 977.09 271.155 979.017 264.415C980.794 258.204 984.791 249.198 993.743 241.564C994.054 241.297 994.523 241.335 994.788 241.646C995.053 241.958 995.017 242.427 994.705 242.692C986.036 250.086 982.165 258.808 980.444 264.822C978.581 271.331 978.767 276.12 978.769 276.166C978.786 276.576 978.47 276.923 978.061 276.94C978.051 276.94 978.04 276.94 978.027 276.94V276.944Z" fill="#7A2D18"/>
        <path d="M984.06 271.941C981.735 271.941 979.348 271.097 978.99 270.966C974.941 269.91 972.048 266.974 971.245 263.107C970.579 259.904 971.584 256.808 973.867 255.032C974.63 254.436 975.268 253.974 975.832 253.567C978.492 251.638 978.835 251.39 979.851 245.572C980.732 240.52 984.217 239.666 987.017 238.979C988.616 238.587 990.125 238.218 991.045 237.184C993.093 234.883 996.955 233.703 999.84 234.491C1001.71 235.004 1002.94 236.306 1003.3 238.152C1003.86 241.008 1001.46 243.31 999.149 245.536C997.222 247.391 995.403 249.14 995.679 250.824C996.397 255.178 994.029 256.454 990.754 258.225C990.379 258.426 989.987 258.64 989.578 258.867C987.486 260.031 987.619 260.622 988.12 262.823C988.402 264.063 988.753 265.604 988.768 267.735C988.779 269.266 988.26 270.406 987.225 271.129C986.356 271.735 985.214 271.943 984.058 271.943L984.06 271.941ZM997.957 235.736C995.869 235.736 993.472 236.69 992.153 238.169C990.926 239.547 989.12 239.991 987.371 240.419C984.624 241.093 982.028 241.729 981.313 245.825C980.224 252.058 979.696 252.596 976.703 254.765C976.15 255.165 975.522 255.619 974.78 256.2C972.947 257.629 972.15 260.158 972.699 262.804C973.388 266.117 975.891 268.634 979.399 269.537C979.425 269.543 979.45 269.552 979.475 269.56C980.813 270.063 984.66 271.106 986.381 269.906C987 269.473 987.297 268.765 987.289 267.741C987.274 265.772 986.943 264.318 986.676 263.147C986.163 260.896 985.794 259.27 988.859 257.565C989.273 257.334 989.671 257.12 990.051 256.914C993.285 255.168 994.763 254.37 994.216 251.061C993.811 248.608 996.003 246.501 998.12 244.464C1000.15 242.513 1002.25 240.495 1001.84 238.432C1001.59 237.133 1000.78 236.287 999.447 235.92C998.985 235.793 998.481 235.734 997.957 235.734V235.736Z" fill="#7A2D18"/>
        <path d="M1372.25 292.904H1390.48L1393.5 276.202H1369.23L1372.25 292.904Z" fill="white"/>
        <path d="M1384.36 269.408C1384.36 269.408 1394.49 273.228 1394.44 266.529C1394.39 259.829 1391.27 258.165 1395.8 255.647C1400.33 253.128 1403.15 252.221 1402.35 247.334C1401.54 242.448 1412.12 238.318 1411.06 232.876C1410 227.436 1401.79 228.494 1398.52 232.17C1395.24 235.848 1387.39 232.975 1385.93 241.339C1384.47 249.702 1384.01 248.593 1378.77 252.674C1373.54 256.755 1375.39 267.097 1384.36 269.408H1384.36Z" fill="white"/>
        <path d="M1390.48 293.646H1372.25C1371.89 293.646 1371.58 293.389 1371.52 293.035L1368.5 276.332C1368.46 276.115 1368.52 275.893 1368.66 275.723C1368.8 275.554 1369.01 275.456 1369.23 275.456H1393.51C1393.73 275.456 1393.93 275.554 1394.08 275.723C1394.22 275.893 1394.28 276.115 1394.24 276.332L1391.21 293.035C1391.15 293.389 1390.84 293.646 1390.49 293.646H1390.48ZM1372.87 292.162H1389.86L1392.62 276.942H1370.12L1372.87 292.162Z" fill="#7A2D18"/>
        <path d="M1383.01 276.944C1382.62 276.944 1382.29 276.633 1382.27 276.236C1382.26 276.003 1382.04 270.449 1384.24 262.764C1386.27 255.679 1390.83 245.405 1401.04 236.698C1401.35 236.433 1401.82 236.469 1402.08 236.781C1402.35 237.092 1402.31 237.561 1402 237.826C1392.09 246.276 1387.66 256.242 1385.68 263.113C1383.54 270.578 1383.75 276.115 1383.75 276.17C1383.77 276.58 1383.45 276.925 1383.04 276.944C1383.03 276.944 1383.02 276.944 1383.01 276.944Z" fill="#7A2D18"/>
        <path d="M1389.9 271.229C1387.25 271.229 1384.53 270.26 1384.14 270.116C1379.55 268.92 1376.27 265.596 1375.36 261.214C1374.61 257.593 1375.74 254.097 1378.32 252.089C1379.19 251.411 1379.92 250.883 1380.56 250.417C1383.63 248.189 1384.03 247.902 1385.2 241.212C1386.19 235.505 1389.97 234.578 1393.31 233.762C1395.15 233.311 1396.89 232.884 1397.97 231.678C1400.24 229.119 1404.7 227.754 1407.91 228.634C1410.01 229.21 1411.39 230.667 1411.79 232.736C1412.41 235.941 1409.7 238.553 1407.08 241.078C1404.85 243.217 1402.75 245.238 1403.08 247.216C1403.89 252.117 1401.21 253.563 1397.51 255.564C1397.08 255.795 1396.63 256.039 1396.16 256.298C1393.7 257.665 1393.87 258.424 1394.44 260.934C1394.77 262.346 1395.16 264.101 1395.18 266.525C1395.2 268.235 1394.62 269.512 1393.46 270.315C1392.49 270.996 1391.21 271.229 1389.9 271.229H1389.9ZM1405.79 229.849C1403.37 229.849 1400.6 230.953 1399.07 232.664C1397.69 234.214 1395.64 234.716 1393.66 235.202C1390.49 235.98 1387.49 236.715 1386.66 241.466C1385.42 248.549 1384.82 249.158 1381.43 251.617C1380.8 252.075 1380.08 252.596 1379.23 253.258C1377.1 254.915 1376.18 257.847 1376.81 260.911C1377.61 264.737 1380.5 267.644 1384.55 268.687C1384.57 268.693 1384.6 268.702 1384.62 268.71C1386.17 269.291 1390.61 270.491 1392.61 269.094C1393.35 268.579 1393.71 267.741 1393.7 266.533C1393.68 264.271 1393.3 262.603 1393 261.261C1392.42 258.734 1392 256.906 1395.44 254.998C1395.91 254.735 1396.37 254.489 1396.8 254.256C1400.54 252.236 1402.25 251.314 1401.61 247.455C1401.16 244.708 1403.64 242.318 1406.04 240.008C1408.38 237.758 1410.8 235.431 1410.33 233.018C1410.03 231.489 1409.09 230.495 1407.51 230.065C1406.98 229.919 1406.39 229.849 1405.79 229.849H1405.79Z" fill="#7A2D18"/>
        <path d="M1379.64 270.258C1379.64 270.258 1370.78 273.601 1370.82 267.739C1370.87 261.878 1373.6 260.423 1369.63 258.219C1365.67 256.014 1363.2 255.221 1363.9 250.945C1364.61 246.669 1355.35 243.054 1356.28 238.295C1357.2 233.535 1364.39 234.46 1367.25 237.678C1370.11 240.896 1376.99 238.384 1378.27 245.7C1379.55 253.016 1379.94 252.047 1384.53 255.617C1389.11 259.187 1387.48 268.236 1379.64 270.258Z" fill="#EFB563"/>
        <path d="M1380.82 276.944C1380.81 276.944 1380.8 276.944 1380.79 276.944C1380.38 276.927 1380.06 276.58 1380.08 276.171C1380.08 276.122 1380.26 271.286 1378.39 264.769C1376.66 258.772 1372.79 250.073 1364.14 242.696C1363.83 242.431 1363.79 241.962 1364.06 241.651C1364.33 241.339 1364.79 241.301 1365.11 241.568C1374.06 249.202 1378.06 258.208 1379.83 264.419C1381.76 271.159 1381.57 276.033 1381.56 276.238C1381.54 276.637 1381.22 276.949 1380.82 276.949V276.944Z" fill="#7A2D18"/>
        <path d="M1374.79 271.941C1373.63 271.941 1372.49 271.733 1371.62 271.127C1370.59 270.404 1370.07 269.264 1370.08 267.733C1370.1 265.602 1370.45 264.061 1370.73 262.821C1371.23 260.62 1371.36 260.029 1369.27 258.865C1368.86 258.638 1368.47 258.426 1368.09 258.223C1364.82 256.455 1362.45 255.176 1363.17 250.822C1363.45 249.139 1361.63 247.387 1359.7 245.535C1357.38 243.309 1354.99 241.006 1355.55 238.151C1355.9 236.304 1357.13 235.004 1359.01 234.491C1361.89 233.699 1365.75 234.882 1367.8 237.182C1368.72 238.214 1370.23 238.585 1371.83 238.977C1374.63 239.664 1378.11 240.519 1379 245.571C1380.01 251.388 1380.36 251.636 1383.02 253.565C1383.58 253.972 1384.22 254.434 1384.98 255.03C1387.26 256.809 1388.27 259.904 1387.6 263.105C1386.8 266.972 1383.91 269.908 1379.86 270.964C1379.5 271.095 1377.11 271.939 1374.79 271.939L1374.79 271.941ZM1360.89 235.736C1360.37 235.736 1359.86 235.795 1359.4 235.922C1358.06 236.289 1357.26 237.135 1357 238.435C1356.6 240.497 1358.7 242.514 1360.73 244.466C1362.85 246.505 1365.04 248.613 1364.63 251.063C1364.09 254.373 1365.56 255.17 1368.8 256.917C1369.18 257.122 1369.58 257.337 1369.99 257.568C1373.06 259.272 1372.69 260.898 1372.17 263.15C1371.91 264.32 1371.58 265.774 1371.56 267.744C1371.55 268.768 1371.85 269.476 1372.47 269.908C1374.19 271.108 1378.03 270.065 1379.37 269.563C1379.4 269.554 1379.42 269.546 1379.45 269.539C1382.96 268.636 1385.46 266.12 1386.15 262.806C1386.7 260.16 1385.9 257.631 1384.07 256.202C1383.32 255.624 1382.7 255.168 1382.15 254.767C1379.15 252.596 1378.63 252.06 1377.54 245.827C1376.82 241.729 1374.22 241.093 1371.48 240.421C1369.73 239.993 1367.92 239.55 1366.7 238.172C1365.38 236.692 1362.98 235.738 1360.89 235.738V235.736Z" fill="#7A2D18"/>
        <path d="M1373.85 192.049C1373.85 192.634 1373.38 193.109 1372.79 193.109C1372.21 193.109 1371.73 192.634 1371.73 192.049C1371.73 191.464 1372.21 190.989 1372.79 190.989C1373.38 190.989 1373.85 191.464 1373.85 192.049Z" fill="#F8A75D"/>
        <path d="M1379.8 192.049C1379.8 192.634 1379.32 193.109 1378.74 193.109C1378.15 193.109 1377.68 192.634 1377.68 192.049C1377.68 191.464 1378.15 190.989 1378.74 190.989C1379.32 190.989 1379.8 191.464 1379.8 192.049Z" fill="#F8A75D"/>
        <path d="M1385.74 192.049C1385.74 192.634 1385.27 193.109 1384.68 193.109C1384.1 193.109 1383.62 192.634 1383.62 192.049C1383.62 191.464 1384.1 190.989 1384.68 190.989C1385.27 190.989 1385.74 191.464 1385.74 192.049Z" fill="#F8A75D"/>
        <path d="M1391.69 192.049C1391.69 192.634 1391.21 193.109 1390.63 193.109C1390.04 193.109 1389.57 192.634 1389.57 192.049C1389.57 191.464 1390.04 190.989 1390.63 190.989C1391.21 190.989 1391.69 191.464 1391.69 192.049Z" fill="#F8A75D"/>
        <path d="M1373.85 197.194C1373.85 197.779 1373.38 198.254 1372.79 198.254C1372.21 198.254 1371.73 197.779 1371.73 197.194C1371.73 196.609 1372.21 196.134 1372.79 196.134C1373.38 196.134 1373.85 196.609 1373.85 197.194Z" fill="#F8A75D"/>
        <path d="M1379.8 197.194C1379.8 197.779 1379.32 198.254 1378.74 198.254C1378.15 198.254 1377.68 197.779 1377.68 197.194C1377.68 196.609 1378.15 196.134 1378.74 196.134C1379.32 196.134 1379.8 196.609 1379.8 197.194Z" fill="#F8A75D"/>
        <path d="M1385.74 197.194C1385.74 197.779 1385.27 198.254 1384.68 198.254C1384.1 198.254 1383.62 197.779 1383.62 197.194C1383.62 196.609 1384.1 196.134 1384.68 196.134C1385.27 196.134 1385.74 196.609 1385.74 197.194Z" fill="#F8A75D"/>
        <path d="M1391.69 197.194C1391.69 197.779 1391.21 198.254 1390.63 198.254C1390.04 198.254 1389.57 197.779 1389.57 197.194C1389.57 196.609 1390.04 196.134 1390.63 196.134C1391.21 196.134 1391.69 196.609 1391.69 197.194Z" fill="#F8A75D"/>
        <path d="M995.333 202.84C995.333 203.425 994.858 203.9 994.273 203.9C993.688 203.9 993.213 203.425 993.213 202.84C993.213 202.255 993.688 201.78 994.273 201.78C994.858 201.78 995.333 202.255 995.333 202.84Z" fill="#F8A75D"/>
        <path d="M1001.28 202.84C1001.28 203.425 1000.8 203.9 1000.22 203.9C999.634 203.9 999.159 203.425 999.159 202.84C999.159 202.255 999.634 201.78 1000.22 201.78C1000.8 201.78 1001.28 202.255 1001.28 202.84Z" fill="#F8A75D"/>
        <path d="M1007.22 202.84C1007.22 203.425 1006.75 203.9 1006.16 203.9C1005.58 203.9 1005.1 203.425 1005.1 202.84C1005.1 202.255 1005.58 201.78 1006.16 201.78C1006.75 201.78 1007.22 202.255 1007.22 202.84Z" fill="#F8A75D"/>
        <path d="M1013.17 202.84C1013.17 203.425 1012.7 203.9 1012.11 203.9C1011.53 203.9 1011.05 203.425 1011.05 202.84C1011.05 202.255 1011.53 201.78 1012.11 201.78C1012.7 201.78 1013.17 202.255 1013.17 202.84Z" fill="#F8A75D"/>
        <path d="M995.333 207.987C995.333 208.572 994.858 209.047 994.273 209.047C993.688 209.047 993.213 208.572 993.213 207.987C993.213 207.402 993.688 206.927 994.273 206.927C994.858 206.927 995.333 207.402 995.333 207.987Z" fill="#F8A75D"/>
        <path d="M1001.28 207.987C1001.28 208.572 1000.8 209.047 1000.22 209.047C999.634 209.047 999.159 208.572 999.159 207.987C999.159 207.402 999.634 206.927 1000.22 206.927C1000.8 206.927 1001.28 207.402 1001.28 207.987Z" fill="#F8A75D"/>
        <path d="M1007.22 207.987C1007.22 208.572 1006.75 209.047 1006.16 209.047C1005.58 209.047 1005.1 208.572 1005.1 207.987C1005.1 207.402 1005.58 206.927 1006.16 206.927C1006.75 206.927 1007.22 207.402 1007.22 207.987Z" fill="#F8A75D"/>
        <path d="M1013.17 207.987C1013.17 208.572 1012.7 209.047 1012.11 209.047C1011.53 209.047 1011.05 208.572 1011.05 207.987C1011.05 207.402 1011.53 206.927 1012.11 206.927C1012.7 206.927 1013.17 207.402 1013.17 207.987Z" fill="#F8A75D"/>
        <path d="M1240.61 291.227C1240.68 290.481 1240.66 289.696 1240.53 288.891C1240.05 285.787 1238.15 283.684 1236.07 283.684H1122.78C1120.7 283.684 1118.8 285.787 1118.31 288.891C1118.19 289.698 1118.17 290.481 1118.23 291.227C1118.3 292.051 1118.77 292.654 1119.32 292.654H1239.53C1240.07 292.654 1240.55 292.051 1240.61 291.227Z" fill="#A4ECD5"/>
        <path d="M1303.16 104.283H1055.69C1053.26 104.283 1051.3 106.25 1051.3 108.676V258.055C1051.3 260.481 1053.26 262.448 1055.69 262.448H1303.16C1305.58 262.448 1307.55 260.481 1307.55 258.055V108.676C1307.55 106.25 1305.58 104.283 1303.16 104.283Z" fill="#A4ECD5"/>
        <path d="M1297.16 114.718H1061.69V249.083H1297.16V114.718Z" fill="white"/>
        <path d="M1303.16 263.19H1055.69C1052.86 263.19 1050.56 260.885 1050.56 258.055V108.678C1050.56 105.846 1052.86 103.543 1055.69 103.543H1303.16C1305.99 103.543 1308.29 105.848 1308.29 108.678V258.055C1308.29 260.888 1305.99 263.19 1303.16 263.19ZM1055.69 105.025C1053.68 105.025 1052.04 106.664 1052.04 108.676V258.053C1052.04 260.067 1053.68 261.704 1055.69 261.704H1303.16C1305.17 261.704 1306.81 260.065 1306.81 258.053V108.678C1306.81 106.664 1305.17 105.027 1303.16 105.027H1055.69V105.025Z" fill="#458A75"/>
        <path d="M1297.16 249.825H1061.69C1061.28 249.825 1060.95 249.493 1060.95 249.083V114.718C1060.95 114.309 1061.28 113.976 1061.69 113.976H1297.16C1297.57 113.976 1297.9 114.309 1297.9 114.718V249.083C1297.9 249.493 1297.57 249.825 1297.16 249.825ZM1062.43 248.341H1296.42V115.46H1062.43V248.341Z" fill="#458A75"/>
        <path d="M1285.49 259.151C1287.36 259.151 1288.88 257.636 1288.88 255.766C1288.88 253.896 1287.36 252.38 1285.49 252.38C1283.62 252.38 1282.11 253.896 1282.11 255.766C1282.11 257.636 1283.62 259.151 1285.49 259.151Z" fill="white"/>
        <path d="M1239.53 293.393H1119.32C1118.36 293.393 1117.59 292.507 1117.49 291.286C1117.42 290.451 1117.45 289.605 1117.58 288.774C1118.12 285.337 1120.25 282.94 1122.78 282.94H1236.07C1238.59 282.94 1240.73 285.34 1241.26 288.774C1241.39 289.605 1241.42 290.449 1241.35 291.286C1241.25 292.507 1240.49 293.393 1239.53 293.393ZM1122.78 284.424C1121.03 284.424 1119.46 286.349 1119.05 289.003C1118.94 289.717 1118.91 290.447 1118.97 291.165C1119.01 291.659 1119.25 291.901 1119.32 291.912H1239.53C1239.6 291.901 1239.83 291.659 1239.87 291.165C1239.93 290.447 1239.91 289.719 1239.8 289.003C1239.38 286.349 1237.82 284.424 1236.07 284.424H1122.78Z" fill="#458A75"/>
        <path d="M1200.06 283.684C1195.85 278.038 1193.54 271.153 1193.54 264.036V262.45H1165.31V264.036C1165.31 271.155 1163 278.04 1158.79 283.684H1200.06Z" fill="white"/>
        <path d="M1200.06 284.426H1158.79C1158.51 284.426 1158.25 284.267 1158.12 284.017C1158 283.767 1158.02 283.466 1158.19 283.241C1162.3 277.731 1164.57 270.911 1164.57 264.036V262.448C1164.57 262.039 1164.9 261.706 1165.31 261.706H1193.54C1193.95 261.706 1194.28 262.039 1194.28 262.448V264.036C1194.28 270.911 1196.55 277.731 1200.66 283.241C1200.83 283.466 1200.85 283.767 1200.73 284.017C1200.6 284.267 1200.34 284.426 1200.06 284.426ZM1160.23 282.942H1198.62C1194.86 277.4 1192.8 270.744 1192.8 264.036V263.19H1166.05V264.036C1166.05 270.744 1163.99 277.4 1160.23 282.942H1160.23Z" fill="#458A75"/>
        <path d="M1315.64 268.568C1322.2 257.349 1325.4 259.018 1333.19 249.34C1334.44 247.788 1335.4 246.276 1336.14 244.837L1318.82 227.828C1318.82 227.828 1314.57 231.708 1311.82 235.42C1310.09 237.765 1306.64 244.203 1305.16 248.729C1298.77 268.346 1304.89 288.125 1304.89 288.125L1309.86 288.197C1309.86 288.197 1309.99 278.208 1315.64 268.568H1315.64Z" fill="#E0A053"/>
        <path d="M1298.11 292.276C1297.91 292.276 1297.78 292.075 1297.86 291.897C1298.25 290.964 1299.68 288.638 1304.08 288.903C1309.57 289.232 1309.89 290.671 1309.89 290.671L1309.88 292.121C1309.88 292.274 1309.75 292.395 1309.6 292.393L1298.11 292.278V292.276Z" fill="#1D1C1C"/>
        <path d="M1304.25 291.763L1304.74 287.619L1309.92 287.67L1309.88 291.88L1304.25 291.763Z" fill="#1D1C1C"/>
        <path d="M1326.32 195.483C1325.08 196.357 1323.82 197.215 1322.57 198.08L1318.8 200.652C1317.54 201.508 1316.29 202.367 1315.02 203.211L1311.23 205.755L1310.51 206.236C1308.98 207.262 1307 207.105 1305.65 205.984C1304.25 204.809 1302.84 203.62 1301.45 202.428L1297.25 198.858L1293.07 195.256C1291.69 194.048 1290.3 192.842 1288.92 191.618L1291.4 187.976C1293.04 188.805 1294.67 189.651 1296.31 190.495L1301.2 193.047L1306.06 195.632C1307.69 196.492 1309.31 197.355 1310.92 198.231L1305.35 198.46L1308.63 195.292C1309.73 194.232 1310.83 193.187 1311.93 192.14L1315.24 189C1316.35 187.961 1317.46 186.916 1318.57 185.884L1326.32 195.483H1326.32Z" fill="#F6A89B"/>
        <path d="M1329.72 184.033C1330.94 185.511 1333.3 192.257 1322.16 198.776L1313.93 189.537C1313.93 189.537 1317.15 185.027 1321.26 183.55C1325.43 182.047 1328.5 182.556 1329.72 184.033H1329.72Z" fill="#CE5841"/>
        <path d="M1291.38 187.927C1291.38 187.927 1289.82 182.566 1288.64 183.56C1287.46 184.555 1287.82 185.464 1287.82 185.464C1287.82 185.464 1284.67 182.795 1282.84 184.167C1281.02 185.54 1281.49 187.465 1283.59 188.964C1286.24 190.853 1289.36 192.047 1289.36 192.047L1291.39 187.927H1291.38Z" fill="#F6A89B"/>
        <path d="M1320.26 235.969L1316.05 230.497L1321.13 230.8L1320.26 235.969Z" fill="#F7B04C"/>
        <path d="M1318.65 231.14C1318.65 231.14 1324.89 252.571 1343.97 286.459L1349.11 285.488C1349.11 285.488 1343.41 260.205 1344.07 249.433C1344.73 238.661 1346.91 227.357 1342.94 219.013C1338.97 210.671 1318.65 231.14 1318.65 231.14H1318.65Z" fill="#EFB563"/>
        <path d="M1328.82 180.124C1330.99 179.71 1336.99 178.523 1342.59 191.847C1347.97 204.654 1346.14 230.798 1346.14 230.798C1346.14 230.798 1340.36 232.564 1330.43 232.513C1321.96 232.471 1315.34 230.387 1315.34 230.387C1315.34 230.387 1315.08 212.395 1315.9 200.635C1316.72 188.875 1322.34 181.356 1328.82 180.124H1328.82Z" fill="#DC735A"/>
        <path d="M1345.64 185.513C1346.97 186.522 1348.29 187.546 1349.62 188.57L1353.57 191.661L1354.06 192.051L1354.5 192.375C1354.65 192.496 1354.81 192.625 1354.96 192.753C1355.56 193.272 1356.11 193.864 1356.57 194.504C1357.51 195.784 1358.14 197.256 1358.42 198.769C1358.7 200.283 1358.64 201.841 1358.25 203.306C1358.05 204.037 1357.77 204.743 1357.42 205.403C1357.24 205.731 1357.05 206.051 1356.84 206.355C1356.73 206.507 1356.62 206.656 1356.51 206.8L1356.34 207.016L1356.24 207.133L1352.89 210.877C1351.78 212.125 1350.66 213.372 1349.53 214.612L1346.16 218.335C1345.02 219.569 1343.9 220.809 1342.75 222.036L1339.2 219.439C1340.02 217.976 1340.86 216.526 1341.69 215.072L1344.21 210.724C1345.05 209.274 1345.9 207.83 1346.75 206.389L1349.3 202.062L1349.38 201.926L1349.38 201.886C1349.39 201.86 1349.4 201.833 1349.4 201.807C1349.41 201.756 1349.41 201.708 1349.41 201.659C1349.41 201.563 1349.4 201.476 1349.38 201.394C1349.33 201.228 1349.25 201.082 1349.15 200.974C1349.04 200.866 1348.92 200.807 1348.81 200.792C1348.75 200.783 1348.7 200.785 1348.65 200.792C1348.63 200.796 1348.62 200.794 1348.6 200.798L1348.58 200.802H1348.58C1348.58 200.802 1348.58 200.802 1348.57 200.802L1348.56 200.794L1348.52 200.777L1347.96 200.497L1343.48 198.227C1341.99 197.463 1340.51 196.7 1339.03 195.92L1345.64 185.511L1345.64 185.513Z" fill="#FDC0AD"/>
        <path d="M1332.4 185.123C1333.23 183.399 1338.5 179.664 1349.18 187.815L1342.66 198.328C1342.66 198.328 1337.23 195.632 1334.47 192.719C1331.98 190.088 1331.59 186.802 1332.4 185.121V185.123Z" fill="#CE5841"/>
        <path d="M1331.76 176.474C1331.76 176.474 1331.24 180.173 1331.81 181.733C1331.83 181.78 1331.85 181.825 1331.87 181.867C1332.53 183.336 1326.2 182.473 1326.7 181.292C1327.2 180.112 1328.19 175.797 1328.19 175.797L1331.76 176.472V176.474Z" fill="#F6A89B"/>
        <path d="M1327.09 167.26C1327.09 167.26 1324.61 170.05 1323.52 173.54C1322.44 177.027 1324.96 180.385 1328.7 179.582C1332.91 178.676 1334.03 170.201 1334.03 170.201C1334.03 170.201 1329.81 164.598 1327.09 167.26H1327.09Z" fill="#FDC0AD"/>
        <path d="M1331.92 174.277C1331.92 174.277 1331.97 171.464 1331.6 170.298C1331.6 170.298 1328.53 169.832 1327.57 166.885C1327.57 166.885 1326.76 167.563 1326.1 168.526C1326.1 168.526 1324.71 167.277 1326.03 164.68C1327.36 162.083 1328.65 163.673 1328.65 163.673C1328.65 163.673 1333.66 162.083 1336.05 165.793C1338.43 169.503 1337.49 174.881 1331.92 176.804C1331.92 176.804 1333.03 174.551 1331.92 174.277H1331.92Z" fill="#7A2D18"/>
        <path d="M1334.53 175.207C1335.23 174.292 1335.06 172.981 1334.15 172.279C1333.23 171.577 1331.92 171.749 1331.22 172.664C1330.52 173.579 1330.69 174.89 1331.6 175.592C1332.52 176.294 1333.83 176.122 1334.53 175.207Z" fill="#FDC0AD"/>
        <path d="M1326.52 168.729C1326.52 168.729 1322.02 173.13 1322.28 173.364C1322.53 173.597 1324.13 174.277 1324.13 174.277L1326.52 168.729Z" fill="#FDC0AD"/>
        <path d="M1338.73 292.257C1338.54 292.293 1338.37 292.123 1338.41 291.933C1338.61 290.94 1339.56 288.382 1343.92 287.78C1349.37 287.029 1349.98 288.375 1349.98 288.375L1350.24 289.8C1350.27 289.948 1350.17 290.092 1350.03 290.12L1338.73 292.257Z" fill="#1D1C1C"/>
        <path d="M1345.09 290.311L1343.97 286.459L1349.11 285.488C1349.11 285.488 1350.17 287.534 1350.24 289.8L1345.09 290.309V290.311Z" fill="#1D1C1C"/>
        <path d="M1331.18 214.858L1328.88 217.981L1277.27 180.207L1279.57 177.084L1331.18 214.858Z" fill="#7A2D18"/>
        <path d="M1256.48 188.231C1240.72 190.637 1225.99 179.81 1223.59 164.046C1221.18 148.282 1232 133.552 1247.77 131.146C1263.53 128.74 1278.26 139.566 1280.66 155.331C1283.07 171.095 1272.24 185.825 1256.48 188.231ZM1246.57 123.321C1226.49 126.388 1212.69 145.157 1215.76 165.242C1218.83 185.327 1237.59 199.124 1257.67 196.058C1277.76 192.993 1291.55 174.222 1288.49 154.137C1285.42 134.052 1266.65 120.255 1246.57 123.321Z" fill="white"/>
        <path d="M1252.04 197.228C1244.11 197.228 1236.41 194.716 1229.9 189.929C1221.82 183.991 1216.54 175.263 1215.03 165.354C1213.51 155.443 1215.95 145.538 1221.89 137.459C1227.83 129.382 1236.55 124.099 1246.46 122.587C1256.37 121.074 1266.27 123.512 1274.35 129.45C1282.43 135.388 1287.71 144.116 1289.22 154.025C1290.74 163.936 1288.3 173.84 1282.36 181.92C1276.42 189.997 1267.7 195.28 1257.79 196.792C1255.87 197.084 1253.95 197.23 1252.05 197.23L1252.04 197.228ZM1246.68 124.054C1237.17 125.506 1228.78 130.58 1223.08 138.339C1217.38 146.096 1215.04 155.613 1216.49 165.129C1217.95 174.648 1223.02 183.031 1230.78 188.733C1238.53 194.436 1248.05 196.777 1257.56 195.324C1267.08 193.872 1275.46 188.799 1281.17 181.04C1286.87 173.281 1289.21 163.766 1287.76 154.249C1286.3 144.731 1281.23 136.348 1273.47 130.645C1265.72 124.943 1256.2 122.602 1246.69 124.054H1246.68ZM1252.06 189.31C1245.8 189.31 1239.72 187.328 1234.59 183.55C1228.21 178.865 1224.05 171.977 1222.85 164.158C1221.66 156.338 1223.58 148.521 1228.27 142.148C1232.95 135.776 1239.84 131.608 1247.65 130.414C1255.47 129.221 1263.29 131.144 1269.66 135.829C1276.03 140.514 1280.2 147.402 1281.4 155.22C1283.86 171.364 1272.73 186.501 1256.59 188.967C1255.08 189.198 1253.56 189.312 1252.06 189.312V189.31ZM1252.14 131.555C1250.73 131.555 1249.31 131.661 1247.88 131.879C1240.45 133.013 1233.91 136.971 1229.46 143.026C1225.01 149.081 1223.18 156.505 1224.32 163.934C1226.44 177.834 1238.46 187.822 1252.11 187.822C1253.51 187.822 1254.94 187.716 1256.37 187.497C1271.7 185.157 1282.27 170.777 1279.93 155.443C1277.81 141.542 1265.79 131.555 1252.14 131.555Z" fill="#7A2D18"/>
        <path d="M1340.34 220.76L1337.08 225.201C1336.46 226.049 1335.26 226.232 1334.41 225.608L1302.59 202.214C1301.74 201.591 1301.56 200.395 1302.18 199.547L1305.45 195.106C1306.07 194.258 1307.27 194.076 1308.11 194.699L1339.94 218.093C1340.78 218.716 1340.97 219.912 1340.34 220.76Z" fill="#7A2D18"/>
        <path d="M1335.88 226.406C1335.88 226.406 1337.71 227.065 1339.62 225.88C1341.53 224.695 1342.8 221.797 1342.8 221.797L1340.71 219.781C1340.71 219.781 1337.33 224.341 1336.15 224.695C1334.96 225.049 1335.11 226.035 1335.88 226.406H1335.88Z" fill="#FDC0AD"/>
        <path d="M1052.61 227.612C1052.61 227.612 1055.96 248.941 1050.57 287.458H1045.35C1045.35 287.458 1039.87 262.077 1035.32 252.291C1030.77 242.505 1024.62 232.774 1025.27 223.559C1025.92 214.341 1052.61 227.612 1052.61 227.612H1052.61Z" fill="#5D367B"/>
        <path d="M1052.61 227.612C1052.61 227.612 1051.6 236.662 1045.33 239.105L1047.77 228.746L1052.61 227.612Z" fill="#775498"/>
        <path d="M1048.61 227.114C1048.61 227.114 1044.93 253.908 1028.87 287.457H1023.64C1023.64 287.457 1026.31 266.605 1023.43 248.844C1021.72 238.365 1021 226.467 1022.09 222.937C1024.83 214.112 1048.61 227.114 1048.61 227.114H1048.61Z" fill="#775498"/>
        <path d="M1056.8 292.181C1057 292.181 1057.13 291.984 1057.06 291.803C1056.67 290.866 1055.27 288.528 1050.87 288.748C1045.38 289.024 1045.03 290.457 1045.03 290.457V291.907C1045.03 292.06 1045.16 292.183 1045.31 292.183H1056.8V292.181Z" fill="#1D1C1C"/>
        <path d="M1050.19 291.449L1050.57 287.458H1045.35C1045.35 287.458 1044.69 289.662 1045.03 291.907L1050.19 291.449Z" fill="#1D1C1C"/>
        <path d="M1035.1 292.181C1035.29 292.181 1035.43 291.984 1035.35 291.803C1034.97 290.866 1033.57 288.528 1029.16 288.748C1023.67 289.024 1023.33 290.457 1023.33 290.457V291.907C1023.33 292.06 1023.45 292.183 1023.6 292.183H1035.1V292.181Z" fill="#1D1C1C"/>
        <path d="M1028.49 291.449L1028.87 287.458H1023.64C1023.64 287.458 1022.98 289.662 1023.33 291.907L1028.49 291.449Z" fill="#1D1C1C"/>
        <path d="M1048.29 181.487C1049.72 182.573 1051.14 183.679 1052.57 184.776L1054.69 186.438L1055.71 187.233C1055.99 187.449 1056.26 187.671 1056.55 187.871C1057.12 188.29 1057.73 188.661 1058.35 189.028C1058.97 189.374 1059.61 189.711 1060.28 189.991C1060.94 190.29 1061.64 190.525 1062.33 190.754C1062.68 190.854 1063.04 190.962 1063.4 191.049C1063.76 191.129 1064.12 191.227 1064.48 191.29L1065.03 191.396L1065.58 191.479C1065.95 191.545 1066.32 191.566 1066.7 191.61C1067.07 191.638 1067.45 191.663 1067.83 191.678L1068.4 191.687C1068.5 191.687 1068.58 191.693 1068.69 191.689L1069.03 191.68C1070.83 191.638 1072.63 191.591 1074.43 191.564L1079.84 191.473C1081.64 191.456 1083.45 191.426 1085.25 191.417L1085.77 195.789C1084.02 196.207 1082.26 196.601 1080.5 197.008L1075.22 198.189C1073.47 198.587 1071.7 198.965 1069.94 199.346L1069.61 199.418C1069.51 199.442 1069.36 199.465 1069.24 199.488L1068.47 199.626C1067.96 199.709 1067.44 199.777 1066.92 199.838C1066.39 199.881 1065.87 199.946 1065.34 199.961L1064.55 199.997C1064.29 200.003 1064.03 200.001 1063.76 200.001C1061.64 200.001 1059.51 199.745 1057.42 199.266C1055.32 198.789 1053.26 198.081 1051.29 197.129C1050.8 196.9 1050.32 196.639 1049.83 196.378L1048.6 195.704L1046.23 194.411C1044.66 193.537 1043.08 192.675 1041.52 191.791L1048.29 181.483L1048.29 181.487Z" fill="#F6A89B"/>
        <path d="M1037.02 180.73C1035.95 182.32 1034.25 189.263 1045.97 194.667L1053.27 184.671C1053.27 184.671 1049.63 180.497 1045.39 179.427C1041.09 178.337 1038.08 179.14 1037.02 180.73Z" fill="#6A7589"/>
        <path d="M1084.35 191.576C1084.35 191.576 1087.98 187.334 1088.65 188.729C1089.32 190.124 1088.61 190.8 1088.61 190.8C1088.61 190.8 1092.58 189.666 1093.68 191.669C1094.78 193.673 1093.58 195.405 1091.02 195.734C1088.47 196.06 1085.1 195.71 1085.1 195.71L1084.35 191.578V191.576Z" fill="#F6A89B"/>
        <path d="M1039.13 177.349C1036.95 176.936 1030.96 175.748 1025.36 189.073C1019.98 201.879 1020.89 228.193 1020.89 228.193C1020.89 228.193 1027.59 229.789 1037.51 229.738C1045.98 229.696 1052.61 227.612 1052.61 227.612C1052.61 227.612 1052.86 209.62 1052.04 197.86C1051.23 186.1 1045.61 178.581 1039.13 177.349H1039.13Z" fill="#6B99F7"/>
        <path d="M1036.33 191.797L1035.32 195.897C1034.99 197.264 1034.63 198.628 1034.28 199.993L1033.23 204.087L1032.16 208.176L1032.2 206.889C1032.23 209.122 1032.26 211.352 1032.27 213.586L1032.32 220.285L1032.33 226.989C1032.32 229.223 1032.32 231.46 1032.29 233.697L1027.91 234.138C1027.44 231.95 1026.99 229.762 1026.54 227.572L1025.21 221.002L1023.91 214.428C1023.48 212.238 1023.06 210.044 1022.65 207.852C1022.62 207.703 1022.61 207.557 1022.62 207.413L1022.69 206.565L1023.04 202.35L1023.4 198.14C1023.52 196.737 1023.64 195.333 1023.77 193.932L1024.18 189.728L1036.33 191.799L1036.33 191.797Z" fill="#FDC0AD"/>
        <path d="M1032.11 179.427C1033.99 179.779 1039.41 183.132 1035.7 196.041L1023.54 193.788C1023.54 193.788 1023.99 187.703 1025.79 184.116C1027.58 180.527 1030.23 179.075 1032.11 179.427Z" fill="#6A7589"/>
        <path d="M1031.64 230.584C1031.64 230.584 1035.95 234.133 1034.57 234.826C1033.19 235.522 1032.5 234.833 1032.5 234.833C1032.5 234.833 1033.72 238.778 1031.74 239.919C1029.76 241.057 1028 239.893 1027.62 237.345C1027.24 234.795 1027.52 231.42 1027.52 231.42L1031.64 230.584H1031.64Z" fill="#FDC0AD"/>
        <path d="M1036.92 173.043C1036.92 173.043 1036.51 176.757 1035.57 178.129C1035.55 178.169 1035.52 178.21 1035.49 178.246C1034.49 179.509 1040.84 180.224 1040.64 178.958C1040.45 177.692 1040.54 173.264 1040.54 173.264L1036.92 173.043H1036.92Z" fill="#F6A89B"/>
        <path d="M1043.7 165.259C1043.7 165.259 1045.43 168.574 1045.62 172.221C1045.81 175.867 1042.55 178.502 1039.12 176.808C1035.26 174.896 1036.26 166.408 1036.26 166.408C1036.26 166.408 1041.72 162.013 1043.7 165.259Z" fill="#FDC0AD"/>
        <path d="M1038.01 170.33C1038.01 170.33 1039.19 168.044 1038.53 165.996C1038.53 165.996 1042.24 166.492 1044.43 165.22C1046.62 163.948 1047.19 161.547 1046.17 160.556C1045.19 159.6 1043.7 159.215 1042.23 160.556C1040.76 161.898 1036.52 161.262 1034.89 162.11C1033.27 162.958 1034.34 169.467 1036.7 173.385L1036.78 170.696L1038.01 170.328V170.33Z" fill="#1D1C1C"/>
        <path d="M1034.43 170.885C1034.73 171.996 1035.88 172.649 1036.99 172.344C1038.1 172.036 1038.76 170.887 1038.45 169.776C1038.15 168.665 1036.99 168.012 1035.88 168.318C1034.77 168.625 1034.12 169.774 1034.43 170.885Z" fill="#FDC0AD"/>
        <path d="M1043.9 166.823C1043.9 166.823 1047.18 172.193 1046.87 172.356C1046.57 172.52 1044.85 172.789 1044.85 172.789L1043.9 166.825V166.823Z" fill="#FDC0AD"/>
        <circle cx="1181.82" cy="177.551" r="30.033" fill="#03A973"/>
        <path d="M1182.78 49.8986C1183.13 51.4335 1183.45 52.9747 1183.79 54.5138L1184.76 59.1418C1185.09 60.683 1185.39 62.2328 1185.7 63.7782L1186.17 66.0975L1186.29 66.6763L1186.35 66.9667L1186.35 66.9858V66.9943C1186.34 66.9477 1186.39 67.1109 1186.32 66.8904C1186.22 66.5957 1186.09 66.3011 1185.92 66.0297C1185.84 65.894 1185.75 65.7626 1185.65 65.6375C1185.53 65.4742 1185.5 65.4509 1185.5 65.4509C1185.45 65.3831 1185.39 65.3174 1185.32 65.2538L1185.23 65.1605L1185.2 65.1414C1185.18 65.1181 1185.13 65.0863 1185.12 65.0714H1185.1C1185.1 65.0714 1185.14 65.1244 1185.19 65.1732L1185.35 65.3343C1185.47 65.4488 1185.6 65.5739 1185.73 65.6968C1186.27 66.195 1186.86 66.7102 1187.44 67.2232L1189.2 68.7602L1192.77 71.8406L1196.35 74.9316L1199.92 78.0437L1197.47 81.7007C1196.05 80.9948 1194.64 80.2697 1193.23 79.5511L1189.02 77.3569C1187.61 76.6255 1186.22 75.8729 1184.82 75.116L1182.72 73.9691C1182.02 73.5811 1181.32 73.1932 1180.59 72.7692C1180.4 72.6611 1180.22 72.5529 1180.02 72.4321C1179.93 72.3727 1179.83 72.307 1179.72 72.2371C1179.61 72.1629 1179.5 72.0908 1179.34 71.9721L1179.22 71.8745L1179.02 71.7071L1178.97 71.6625L1178.85 71.5438C1178.77 71.4633 1178.69 71.3806 1178.61 71.2937C1178.61 71.2873 1178.58 71.2597 1178.45 71.0922C1178.35 70.9629 1178.26 70.8272 1178.18 70.6852C1178 70.4011 1177.86 70.098 1177.76 69.7927C1177.68 69.5659 1177.73 69.7227 1177.72 69.6719L1177.71 69.6634L1177.71 69.6464L1177.59 69.3751L1177.36 68.8302L1176.44 66.653C1175.82 65.2008 1175.2 63.7507 1174.59 62.2942L1172.78 57.927C1172.19 56.4664 1171.58 55.012 1171 53.5471L1182.79 49.8965L1182.78 49.8986Z" fill="#FDC0AD"/>
        <path d="M1174.56 42.1459C1172.72 42.6949 1167 46.9752 1172.61 58.5992L1184.6 55.5231C1184.6 55.5231 1184.44 49.9835 1181.85 46.4643C1179.23 42.8879 1176.39 41.5968 1174.56 42.1459Z" fill="#D86A97"/>
        <path d="M1156.92 89.6697L1169.19 86.8226L1175.81 85.2856L1178.04 83.2249C1178.04 83.2249 1202.07 82.625 1206.5 94.0157C1211.89 105.555 1207.43 143.348 1207.43 143.348L1202.26 143.075C1196.33 127.039 1194.88 117.181 1194.26 109.619C1194.26 109.619 1194.26 109.613 1194.26 109.608C1194.25 109.56 1194.25 109.509 1194.24 109.46C1194.15 108.497 1193.35 103.484 1187.34 104.713C1187.34 104.713 1187.34 104.713 1187.33 104.713C1178.54 108.061 1156.92 89.6655 1156.92 89.6655V89.6697Z" fill="#4A6FA5"/>
        <path d="M1151.03 83.2251H1178.04C1178.04 83.2251 1196.74 87.5414 1198.34 98.6693C1200.98 111.129 1187.75 143.7 1187.75 143.7L1182.66 142.723C1181.59 130.679 1181.25 121.143 1182.89 111.101C1182.89 111.101 1182.89 111.095 1182.89 111.09C1182.9 111.042 1182.9 110.993 1182.91 110.944C1183.03 109.986 1183.39 104.919 1177.26 104.76C1177.26 104.76 1177.26 104.76 1177.25 104.76C1142.13 107.183 1151.03 83.2251 1151.03 83.2251H1151.03Z" fill="#6788BA"/>
        <path d="M1175.22 39.5448C1175.22 39.5448 1183 43.2399 1182.28 56.8355C1181.71 67.7811 1182.81 83.0832 1182.81 83.0832C1182.81 83.0832 1176.22 89.3224 1165.11 88.892C1153.99 88.4638 1150.03 86.3035 1150.03 86.3035C1150.03 86.3035 1149.89 62.5637 1153.65 52.0379C1159.03 36.9965 1171.31 38.5272 1171.31 38.5272L1175.22 39.5427V39.5448Z" fill="#E882A9"/>
        <path d="M1173.04 35.3024C1173.04 35.3024 1171.74 38.8047 1170.5 39.9049C1170.46 39.9389 1170.42 39.9685 1170.38 39.9961C1169.11 40.9777 1175.09 43.2206 1175.21 41.9465C1175.33 40.6724 1176.5 36.3985 1176.5 36.3985L1173.04 35.3003L1173.04 35.3024Z" fill="#F6A89B"/>
        <path d="M1182.81 31.7049C1182.81 31.7049 1183.07 35.434 1181.8 38.8557C1180.52 42.2774 1176.48 43.3968 1174.01 40.4775C1171.23 37.183 1175.52 29.7948 1175.52 29.7948C1175.52 29.7948 1182.29 27.9398 1182.81 31.7049Z" fill="#FDC0AD"/>
        <path d="M1172.41 28.9763C1172.18 29.3007 1172.02 29.6908 1171.96 30.1232C1171.77 31.4567 1172.61 32.6778 1173.83 32.8517C1173.92 32.8644 1174.01 32.8686 1174.09 32.8708C1174.33 33.1888 1174.69 33.4177 1175.11 33.4771C1175.95 33.5958 1176.72 33.0192 1176.85 32.1881C1177.76 32.1372 1178.55 31.5373 1178.84 30.6766C1179.14 30.9288 1179.56 31.1133 1180.03 31.1811C1180.7 31.2765 1181.32 31.1112 1181.71 30.7868C1181.79 31.0772 1181.92 31.3719 1182.1 31.6518C1182.82 32.7563 1184.03 33.2375 1184.82 32.7266C1185.61 32.2178 1185.67 30.9098 1184.95 29.8052C1184.84 29.6293 1184.71 29.4703 1184.57 29.3261C1184.88 29.0039 1185.09 28.5905 1185.16 28.1156C1185.33 26.9072 1184.49 25.7921 1183.28 25.6204C1183.1 25.5949 1182.92 25.5949 1182.75 25.6119C1182.54 24.5752 1181.61 23.7145 1180.4 23.5428C1179.49 23.4134 1178.63 23.7018 1178.05 24.2466C1177.77 23.7887 1177.29 23.4537 1176.71 23.3732C1175.72 23.2332 1174.8 23.8947 1174.6 24.8635C1174.54 24.8508 1174.48 24.836 1174.42 24.8275C1173.22 24.6579 1172.09 25.6204 1171.9 26.9772C1171.79 27.7361 1172 28.4569 1172.41 28.9742L1172.41 28.9763Z" fill="#7A2D18"/>
        <path d="M1172.06 33.1717C1171.9 34.3143 1172.69 35.3701 1173.83 35.5312C1174.97 35.6923 1176.03 34.8973 1176.19 33.7568C1176.35 32.6162 1175.56 31.5583 1174.42 31.3972C1173.27 31.2361 1172.22 32.0311 1172.06 33.1717Z" fill="#FDC0AD"/>
        <path d="M1182.36 33.2163C1182.36 33.2163 1183.23 39.447 1182.89 39.4767C1182.54 39.5064 1180.86 39.0696 1180.86 39.0696L1182.36 33.2163H1182.36Z" fill="#FDC0AD"/>
        <path d="M1167.18 53.7847C1167.18 55.6778 1167.18 57.5689 1167.17 59.462L1167.15 62.3028L1167.11 65.1436V65.3217L1167.11 65.3811V65.415C1167.1 65.4595 1167.1 65.504 1167.09 65.5507C1167.09 65.6397 1167.09 65.7309 1167.09 65.822C1167.1 65.9111 1167.09 66.0065 1167.11 66.0955C1167.12 66.14 1167.12 66.1888 1167.13 66.2333C1167.14 66.2778 1167.14 66.3245 1167.15 66.3711C1167.22 66.7421 1167.37 67.1046 1167.56 67.4566C1167.66 67.6262 1167.77 67.8042 1167.9 67.9611C1168.03 68.1307 1168.18 68.2749 1168.33 68.4275C1168.38 68.4614 1168.42 68.4954 1168.46 68.5314L1168.52 68.5865L1168.67 68.6798L1169.27 69.055L1170.48 69.8076L1180.14 75.8454L1184.97 78.8664L1189.79 81.9022L1187.82 85.8391L1182.5 83.7975L1177.19 81.7411L1166.57 77.6241L1165.24 77.1089L1164.58 76.8503L1164.41 76.7846L1164.16 76.6701L1163.66 76.4348C1162.35 75.7691 1161.14 74.8702 1160.11 73.7784C1159.86 73.5007 1159.61 73.2251 1159.38 72.924C1159.27 72.7756 1159.15 72.6272 1159.04 72.4746L1158.72 72.0061C1158.51 71.6944 1158.33 71.3616 1158.14 71.033C1157.97 70.6938 1157.79 70.3588 1157.65 70.0048L1157.43 69.4769C1157.36 69.2988 1157.31 69.1186 1157.24 68.9363C1157.12 68.5759 1157.02 68.2049 1156.93 67.8339C1156.84 67.4608 1156.77 67.0834 1156.71 66.7061L1156.64 66.1358L1156.58 65.6991L1156.25 62.8773L1155.94 60.0556C1155.73 58.1752 1155.53 56.2926 1155.34 54.4101L1167.17 53.791L1167.18 53.7847Z" fill="#FDC0AD"/>
        <path d="M1160.19 42.3579C1158.29 42.5699 1154.34 47.4374 1155.35 58.2028L1167.7 57.3103C1167.7 57.3103 1167.31 50.5072 1165.78 46.7972C1164.25 43.0872 1162.1 42.1459 1160.19 42.3579Z" fill="#D86A97"/>
        <path d="M1186.01 79.6612C1186.01 79.6612 1190.75 78.3998 1191.37 79.816C1191.85 80.9163 1189.92 81.5353 1189.92 81.5353C1189.92 81.5353 1193.8 82.9451 1193.52 85.2114C1193.23 87.4777 1191.24 88.1773 1188.98 86.9434C1186.72 85.7075 1184.2 83.4476 1184.2 83.4476L1186.01 79.6612H1186.01Z" fill="#FDC0AD"/>
        <path d="M1193.33 149.583C1193.52 149.619 1193.69 149.452 1193.65 149.261C1193.45 148.269 1192.52 145.708 1188.15 145.093C1182.71 144.326 1182.1 145.67 1182.1 145.67L1181.82 147.092C1181.79 147.241 1181.89 147.385 1182.04 147.415L1193.33 149.585L1193.33 149.583Z" fill="#1D1C1C"/>
        <path d="M1187.41 147.86L1187.75 143.7L1182.66 142.721L1181.87 146.857L1187.41 147.86Z" fill="#1D1C1C"/>
        <path d="M1213.76 148.415C1213.96 148.426 1214.1 148.235 1214.03 148.05C1213.7 147.094 1212.42 144.684 1208.02 144.671C1202.52 144.654 1202.1 146.068 1202.1 146.068L1202.02 147.516C1202.01 147.667 1202.13 147.796 1202.28 147.804L1213.76 148.413L1213.76 148.415Z" fill="#1D1C1C"/>
        <path d="M1207.67 147.518L1207.43 143.35L1202.26 143.075L1202.04 147.279L1207.67 147.518Z" fill="#1D1C1C"/>
        <path d="M1208.3 87.8932H1170.99C1170.6 87.8932 1170.3 87.5476 1170.36 87.1618L1173.52 66.337C1173.57 66.0253 1173.83 65.7964 1174.15 65.7964H1211.59C1211.98 65.7964 1212.28 66.1462 1212.22 66.532L1208.93 87.3568C1208.88 87.6663 1208.61 87.8932 1208.3 87.8932Z" fill="white"/>
        <path d="M1208.3 88.6353H1170.99C1170.58 88.6353 1170.21 88.4615 1169.94 88.1562C1169.68 87.8509 1169.56 87.4481 1169.62 87.0516L1172.79 66.2269C1172.89 65.5485 1173.46 65.0566 1174.15 65.0566H1211.59C1212 65.0566 1212.38 65.2326 1212.64 65.54C1212.9 65.8474 1213.02 66.2523 1212.95 66.6509L1209.66 87.4756C1209.55 88.1498 1208.98 88.6374 1208.3 88.6374V88.6353ZM1171.11 87.1513H1208.21L1211.47 66.5385H1174.24L1171.11 87.1513Z" fill="#7A2D18"/>
        <path d="M1164.38 89.7312H1207.15C1207.99 89.7312 1208.76 89.2691 1209.16 88.5271L1209.5 87.8953L1164.4 87.2296C1163.82 87.2211 1163.35 87.6854 1163.35 88.2621V88.6988C1163.35 89.2691 1163.81 89.7312 1164.38 89.7312Z" fill="#7A2D18"/>
        <path d="M1191.77 79.6613C1193.03 79.6613 1194.06 78.6333 1194.06 77.3653C1194.06 76.0973 1193.03 75.0693 1191.77 75.0693C1190.5 75.0693 1189.47 76.0973 1189.47 77.3653C1189.47 78.6333 1190.5 79.6613 1191.77 79.6613Z" fill="#7A2D18"/>
        <rect x="1232.35" y="146.543" width="13.7808" height="2.84211" rx="1.42106" fill="#D9D9D9"/>
        <rect x="1232.35" y="163.138" width="13.7808" height="2.84211" rx="1.42106" fill="#D9D9D9"/>
        <rect x="1243.77" y="173.628" width="13.7808" height="2.84211" rx="1.42106" fill="#D9D9D9"/>
        <rect width="13.7808" height="2.84211" rx="1.42106" transform="matrix(-1 0 0 1 1273.21 157.518)" fill="#D9D9D9"/>
        <rect x="1232.35" y="152.163" width="34.2624" height="2.84211" rx="1.42106" fill="#D9D9D9"/>
        <rect x="1232.35" y="168.492" width="36.6381" height="2.84211" rx="1.42106" fill="#D9D9D9"/>
        <rect x="1247.77" y="146.543" width="25.4369" height="2.84211" rx="1.42106" fill="#D9D9D9"/>
        <rect x="1247.31" y="163.138" width="12.3614" height="2.84211" rx="1.42106" fill="#D9D9D9"/>
        <rect x="1260.84" y="163.138" width="12.3614" height="2.84211" rx="1.42106" fill="#D9D9D9"/>
        <rect width="25.4369" height="2.84211" rx="1.42106" transform="matrix(-1 0 0 1 1257.78 157.518)" fill="#D9D9D9"/>
        <path d="M1192.73 175.858C1193.98 176.642 1193.98 178.46 1192.73 179.245L1177.88 188.582C1176.55 189.419 1174.81 188.462 1174.81 186.888L1174.81 168.214C1174.81 166.641 1176.55 165.684 1177.88 166.521L1192.73 175.858Z" fill="white"/>
        <path d="M1087.02 231.709C1087.57 232.109 1087.57 232.92 1087.02 233.32L1078.32 239.729C1077.66 240.216 1076.73 239.744 1076.73 238.924L1076.73 226.105C1076.73 225.285 1077.66 224.813 1078.32 225.3L1087.02 231.709Z" fill="#ACD7F7"/>
        <rect x="1092.66" y="225.881" width="3.80779" height="13.2684" rx="1" fill="#F7BF8C"/>
        <rect x="1099.54" y="225.881" width="3.80779" height="13.2684" rx="1" fill="#F7BF8C"/>
        <rect x="1113.92" y="229.926" width="171.765" height="5.17779" rx="1" fill="#ACD7F7"/>
        <rect x="1113.92" y="229.926" width="44.1235" height="5.17779" rx="1" fill="#565656"/>
        <rect x="1151.79" y="228.641" width="8.59298" height="7.74684" rx="1" fill="#03A973"/>
        <path d="M1361.26 146.004L1355.85 151.418L1352.06 147.628L1353.68 146.004L1355.85 148.17L1359.64 144.38L1361.26 146.004ZM1350 149.144C1349.57 149.253 1349.24 149.253 1348.81 149.253C1344.04 149.253 1340.15 145.354 1340.15 140.589C1340.15 135.825 1344.04 131.926 1348.81 131.926C1353.57 131.926 1357.47 135.825 1357.47 140.589C1357.47 141.023 1357.47 141.348 1357.36 141.781C1358.12 141.889 1358.77 142.106 1359.42 142.43C1359.53 141.781 1359.64 141.239 1359.64 140.589C1359.64 134.634 1354.76 129.76 1348.81 129.76C1342.85 129.76 1337.98 134.634 1337.98 140.589C1337.98 146.545 1342.85 151.418 1348.81 151.418C1349.46 151.418 1350.11 151.31 1350.65 151.202C1350.33 150.66 1350.11 149.902 1350 149.144ZM1352.71 142.864L1349.35 140.914V135.175H1347.73V141.672L1351.52 143.946C1351.84 143.513 1352.27 143.188 1352.71 142.864Z" fill="#C09FEA"/>
        <path d="M989.524 176.333C988.767 176.333 988.119 176.063 987.579 175.525C987.041 174.985 986.771 174.337 986.771 173.58V154.311C986.771 153.554 987.041 152.906 987.579 152.368C988.119 151.828 988.767 151.558 989.524 151.558H990.901V148.806H993.653V151.558H1004.66V148.806H1007.42V151.558H1008.79C1009.55 151.558 1010.2 151.828 1010.74 152.368C1011.28 152.906 1011.55 153.554 1011.55 154.311V173.58C1011.55 174.337 1011.28 174.985 1010.74 175.525C1010.2 176.063 1009.55 176.333 1008.79 176.333H989.524ZM989.524 173.58H1008.79V159.816H989.524V173.58ZM989.524 157.064H1008.79V154.311H989.524V157.064ZM999.159 165.322C998.769 165.322 998.442 165.19 998.179 164.925C997.914 164.662 997.782 164.335 997.782 163.945C997.782 163.556 997.914 163.228 998.179 162.964C998.442 162.701 998.769 162.569 999.159 162.569C999.549 162.569 999.876 162.701 1000.14 162.964C1000.4 163.228 1000.53 163.556 1000.53 163.945C1000.53 164.335 1000.4 164.662 1000.14 164.925C999.876 165.19 999.549 165.322 999.159 165.322ZM993.653 165.322C993.263 165.322 992.936 165.19 992.672 164.925C992.409 164.662 992.277 164.335 992.277 163.945C992.277 163.556 992.409 163.228 992.672 162.964C992.936 162.701 993.263 162.569 993.653 162.569C994.043 162.569 994.37 162.701 994.635 162.964C994.898 163.228 995.03 163.556 995.03 163.945C995.03 164.335 994.898 164.662 994.635 164.925C994.37 165.19 994.043 165.322 993.653 165.322ZM1004.66 165.322C1004.27 165.322 1003.95 165.19 1003.68 164.925C1003.42 164.662 1003.29 164.335 1003.29 163.945C1003.29 163.556 1003.42 163.228 1003.68 162.964C1003.95 162.701 1004.27 162.569 1004.66 162.569C1005.05 162.569 1005.38 162.701 1005.64 162.964C1005.91 163.228 1006.04 163.556 1006.04 163.945C1006.04 164.335 1005.91 164.662 1005.64 164.925C1005.38 165.19 1005.05 165.322 1004.66 165.322ZM999.159 170.827C998.769 170.827 998.442 170.695 998.179 170.431C997.914 170.168 997.782 169.841 997.782 169.451C997.782 169.061 997.914 168.734 998.179 168.471C998.442 168.207 998.769 168.075 999.159 168.075C999.549 168.075 999.876 168.207 1000.14 168.471C1000.4 168.734 1000.53 169.061 1000.53 169.451C1000.53 169.841 1000.4 170.168 1000.14 170.431C999.876 170.695 999.549 170.827 999.159 170.827ZM993.653 170.827C993.263 170.827 992.936 170.695 992.672 170.431C992.409 170.168 992.277 169.841 992.277 169.451C992.277 169.061 992.409 168.734 992.672 168.471C992.936 168.207 993.263 168.075 993.653 168.075C994.043 168.075 994.37 168.207 994.635 168.471C994.898 168.734 995.03 169.061 995.03 169.451C995.03 169.841 994.898 170.168 994.635 170.431C994.37 170.695 994.043 170.827 993.653 170.827ZM1004.66 170.827C1004.27 170.827 1003.95 170.695 1003.68 170.431C1003.42 170.168 1003.29 169.841 1003.29 169.451C1003.29 169.061 1003.42 168.734 1003.68 168.471C1003.95 168.207 1004.27 168.075 1004.66 168.075C1005.05 168.075 1005.38 168.207 1005.64 168.471C1005.91 168.734 1006.04 169.061 1006.04 169.451C1006.04 169.841 1005.91 170.168 1005.64 170.431C1005.38 170.695 1005.05 170.827 1004.66 170.827Z" fill="#B4D0FA"/>
    </g>
    <defs>
        <clipPath id="clip0_8_2006">
            <rect width="1462" height="307" fill="white" transform="translate(0.266113)"/>
        </clipPath>
    </defs>
</svg>